<?xml version="1.0" standalone="no"?>
<!DOCTYPE svg PUBLIC "-//W3C//DTD SVG 20010904//EN"
 "http://www.w3.org/TR/2001/REC-SVG-20010904/DTD/svg10.dtd">
<svg version="1.0" xmlns="http://www.w3.org/2000/svg"
 width="200.000000pt" height="200.000000pt" viewBox="0 0 200.000000 200.000000"
 preserveAspectRatio="xMidYMid meet">
<metadata>
Created by potrace 1.14, written by Peter Selinger 2001-2017
</metadata>
<g transform="translate(0.000000,200.000000) scale(0.100000,-0.100000)"
fill="#000000" stroke="none">
<path d="M1064 1268 c-21 -62 -39 -117 -40 -123 -1 -5 -41 -122 -88 -259 -47
-137 -86 -256 -86 -263 0 -7 10 -13 23 -13 20 0 32 31 150 378 70 207 127 380
127 385 0 4 -11 7 -24 7 -22 0 -28 -11 -62 -112z"/>
<path d="M310 1188 c-107 -87 -203 -167 -213 -177 -18 -18 -14 -23 161 -167
260 -216 243 -204 265 -192 18 9 18 10 0 30 -10 11 -85 75 -168 143 -168 138
-195 162 -195 174 0 5 17 21 38 37 20 16 48 38 62 50 14 12 54 45 90 74 36 29
91 73 122 99 56 44 72 74 45 84 -7 2 -100 -67 -207 -155z"/>
<path d="M1475 1336 c-22 -16 -33 -5 194 -192 94 -76 170 -142 171 -146 0 -9
-37 -42 -218 -189 -89 -73 -161 -137 -159 -143 7 -20 37 -18 66 6 16 13 45 37
66 53 21 17 47 38 59 49 11 10 74 61 139 113 64 53 117 101 117 108 0 10 -319
282 -406 347 -6 4 -19 2 -29 -6z"/>
</g>
</svg>
